<mxfile host="65bd71144e">
    <diagram id="QPdWstXTpCla72dscTz6" name="Страница 1">
        <mxGraphModel dx="991" dy="692" grid="1" gridSize="10" guides="1" tooltips="1" connect="1" arrows="1" fold="1" page="1" pageScale="1" pageWidth="827" pageHeight="1169" math="0" shadow="0">
            <root>
                <mxCell id="0"/>
                <mxCell id="1" parent="0"/>
                <mxCell id="w-fTzNewHKT8VR_-T8Jl-3" value="" style="edgeStyle=orthogonalEdgeStyle;rounded=0;orthogonalLoop=1;jettySize=auto;html=1;fontSize=16;" parent="1" edge="1">
                    <mxGeometry relative="1" as="geometry">
                        <mxPoint x="160" y="80" as="sourcePoint"/>
                        <mxPoint x="160" y="120" as="targetPoint"/>
                    </mxGeometry>
                </mxCell>
                <mxCell id="w-fTzNewHKT8VR_-T8Jl-20" value="" style="edgeStyle=orthogonalEdgeStyle;rounded=0;orthogonalLoop=1;jettySize=auto;html=1;fontSize=16;" parent="1" target="w-fTzNewHKT8VR_-T8Jl-19" edge="1">
                    <mxGeometry relative="1" as="geometry">
                        <mxPoint x="160" y="160" as="sourcePoint"/>
                    </mxGeometry>
                </mxCell>
                <mxCell id="w-fTzNewHKT8VR_-T8Jl-25" value="" style="edgeStyle=orthogonalEdgeStyle;rounded=0;orthogonalLoop=1;jettySize=auto;html=1;fontSize=16;" parent="1" source="w-fTzNewHKT8VR_-T8Jl-6" target="w-fTzNewHKT8VR_-T8Jl-9" edge="1">
                    <mxGeometry relative="1" as="geometry"/>
                </mxCell>
                <mxCell id="w-fTzNewHKT8VR_-T8Jl-6" value="&lt;font style=&quot;font-size: 16px&quot;&gt;count= 0&lt;br style=&quot;font-size: 16px&quot;&gt;size&amp;nbsp; = Length(array)&lt;br style=&quot;font-size: 16px&quot;&gt;&lt;/font&gt;" style="rounded=1;whiteSpace=wrap;html=1;fontSize=16;arcSize=20;" parent="1" vertex="1">
                    <mxGeometry x="440" y="120" width="240" height="60" as="geometry"/>
                </mxCell>
                <mxCell id="w-fTzNewHKT8VR_-T8Jl-36" value="" style="edgeStyle=orthogonalEdgeStyle;rounded=0;orthogonalLoop=1;jettySize=auto;html=1;fontSize=16;" parent="1" source="w-fTzNewHKT8VR_-T8Jl-9" target="w-fTzNewHKT8VR_-T8Jl-10" edge="1">
                    <mxGeometry relative="1" as="geometry"/>
                </mxCell>
                <mxCell id="w-fTzNewHKT8VR_-T8Jl-40" value="" style="edgeStyle=orthogonalEdgeStyle;rounded=0;orthogonalLoop=1;jettySize=auto;html=1;fontSize=16;entryX=0;entryY=0.5;entryDx=0;entryDy=0;" parent="1" source="w-fTzNewHKT8VR_-T8Jl-9" target="w-fTzNewHKT8VR_-T8Jl-41" edge="1">
                    <mxGeometry relative="1" as="geometry">
                        <mxPoint x="820" y="260" as="targetPoint"/>
                    </mxGeometry>
                </mxCell>
                <mxCell id="w-fTzNewHKT8VR_-T8Jl-9" value="index = from 0 to size" style="shape=hexagon;perimeter=hexagonPerimeter2;whiteSpace=wrap;html=1;fixedSize=1;fontSize=16;" parent="1" vertex="1">
                    <mxGeometry x="440" y="220" width="240" height="80" as="geometry"/>
                </mxCell>
                <mxCell id="w-fTzNewHKT8VR_-T8Jl-14" value="NO" style="edgeStyle=orthogonalEdgeStyle;rounded=0;orthogonalLoop=1;jettySize=auto;html=1;fontSize=16;exitX=0;exitY=0.5;exitDx=0;exitDy=0;entryX=0;entryY=0.5;entryDx=0;entryDy=0;" parent="1" source="w-fTzNewHKT8VR_-T8Jl-10" target="w-fTzNewHKT8VR_-T8Jl-9" edge="1">
                    <mxGeometry x="-0.7333" relative="1" as="geometry">
                        <mxPoint x="350" y="490" as="targetPoint"/>
                        <Array as="points">
                            <mxPoint x="350" y="380"/>
                            <mxPoint x="350" y="260"/>
                        </Array>
                        <mxPoint as="offset"/>
                    </mxGeometry>
                </mxCell>
                <mxCell id="w-fTzNewHKT8VR_-T8Jl-16" value="YES" style="edgeStyle=orthogonalEdgeStyle;rounded=0;orthogonalLoop=1;jettySize=auto;html=1;fontSize=16;exitX=0.5;exitY=1;exitDx=0;exitDy=0;entryX=0.5;entryY=0;entryDx=0;entryDy=0;" parent="1" source="w-fTzNewHKT8VR_-T8Jl-10" target="w-fTzNewHKT8VR_-T8Jl-35" edge="1">
                    <mxGeometry x="-0.2" relative="1" as="geometry">
                        <mxPoint x="750" y="510" as="targetPoint"/>
                        <Array as="points">
                            <mxPoint x="560" y="470"/>
                            <mxPoint x="560" y="470"/>
                        </Array>
                        <mxPoint as="offset"/>
                    </mxGeometry>
                </mxCell>
                <mxCell id="w-fTzNewHKT8VR_-T8Jl-10" value="&lt;font style=&quot;font-size: 16px&quot;&gt;length(array[index]) &amp;lt;= 3&lt;/font&gt;" style="rhombus;whiteSpace=wrap;html=1;fontSize=16;" parent="1" vertex="1">
                    <mxGeometry x="440" y="340" width="240" height="80" as="geometry"/>
                </mxCell>
                <mxCell id="w-fTzNewHKT8VR_-T8Jl-53" value="" style="edgeStyle=orthogonalEdgeStyle;rounded=0;orthogonalLoop=1;jettySize=auto;html=1;fontSize=16;" parent="1" source="w-fTzNewHKT8VR_-T8Jl-19" target="w-fTzNewHKT8VR_-T8Jl-31" edge="1">
                    <mxGeometry relative="1" as="geometry"/>
                </mxCell>
                <mxCell id="w-fTzNewHKT8VR_-T8Jl-19" value="&lt;b style=&quot;font-size: 16px;&quot;&gt;FindShortStrings (&lt;/b&gt;array&lt;b style=&quot;font-size: 16px;&quot;&gt;)&lt;/b&gt;" style="shape=process;whiteSpace=wrap;html=1;backgroundOutline=1;fontSize=16;" parent="1" vertex="1">
                    <mxGeometry x="40" y="220" width="240" height="40" as="geometry"/>
                </mxCell>
                <mxCell id="w-fTzNewHKT8VR_-T8Jl-30" value="&lt;b style=&quot;font-size: 16px;&quot;&gt;START&lt;/b&gt;" style="rounded=1;whiteSpace=wrap;html=1;fontSize=16;arcSize=50;fillColor=#f5f5f5;strokeColor=#666666;fontColor=#333333;" parent="1" vertex="1">
                    <mxGeometry x="100" y="20" width="120" height="60" as="geometry"/>
                </mxCell>
                <mxCell id="w-fTzNewHKT8VR_-T8Jl-31" value="&lt;b style=&quot;font-size: 16px;&quot;&gt;END&lt;/b&gt;" style="rounded=1;whiteSpace=wrap;html=1;fontSize=16;arcSize=50;fillColor=#f5f5f5;strokeColor=#666666;fontColor=#333333;" parent="1" vertex="1">
                    <mxGeometry x="100" y="300" width="120" height="60" as="geometry"/>
                </mxCell>
                <mxCell id="w-fTzNewHKT8VR_-T8Jl-33" value="" style="edgeStyle=orthogonalEdgeStyle;rounded=0;orthogonalLoop=1;jettySize=auto;html=1;fontSize=16;" parent="1" source="w-fTzNewHKT8VR_-T8Jl-32" target="w-fTzNewHKT8VR_-T8Jl-6" edge="1">
                    <mxGeometry relative="1" as="geometry"/>
                </mxCell>
                <mxCell id="w-fTzNewHKT8VR_-T8Jl-32" value="&lt;b style=&quot;font-size: 16px;&quot;&gt;FindShortStrings&amp;nbsp;&lt;/b&gt;&lt;b style=&quot;font-size: 16px;&quot;&gt;(&lt;/b&gt;array&lt;b style=&quot;font-size: 16px;&quot;&gt;)&lt;/b&gt;" style="rounded=1;whiteSpace=wrap;html=1;fontSize=16;arcSize=50;fillColor=#f5f5f5;strokeColor=#666666;fontColor=#333333;" parent="1" vertex="1">
                    <mxGeometry x="460" y="20" width="200" height="60" as="geometry"/>
                </mxCell>
                <mxCell id="w-fTzNewHKT8VR_-T8Jl-34" value="&lt;b style=&quot;font-size: 16px;&quot;&gt;END&lt;/b&gt;" style="rounded=1;whiteSpace=wrap;html=1;fontSize=16;arcSize=50;fillColor=#f5f5f5;strokeColor=#666666;fontColor=#333333;" parent="1" vertex="1">
                    <mxGeometry x="1220" y="470" width="200" height="60" as="geometry"/>
                </mxCell>
                <mxCell id="w-fTzNewHKT8VR_-T8Jl-38" style="edgeStyle=orthogonalEdgeStyle;rounded=0;orthogonalLoop=1;jettySize=auto;html=1;fontSize=16;" parent="1" source="w-fTzNewHKT8VR_-T8Jl-35" edge="1">
                    <mxGeometry relative="1" as="geometry">
                        <mxPoint x="350" y="379.2381068638393" as="targetPoint"/>
                    </mxGeometry>
                </mxCell>
                <mxCell id="w-fTzNewHKT8VR_-T8Jl-35" value="&lt;font style=&quot;font-size: 16px&quot;&gt;&lt;span style=&quot;font-size: 16px&quot;&gt;count++&lt;/span&gt;&lt;br style=&quot;font-size: 16px&quot;&gt;&lt;/font&gt;" style="rounded=1;whiteSpace=wrap;html=1;fontSize=16;" parent="1" vertex="1">
                    <mxGeometry x="440" y="470" width="240" height="60" as="geometry"/>
                </mxCell>
                <mxCell id="w-fTzNewHKT8VR_-T8Jl-54" style="edgeStyle=orthogonalEdgeStyle;rounded=0;orthogonalLoop=1;jettySize=auto;html=1;fontSize=16;" parent="1" source="w-fTzNewHKT8VR_-T8Jl-37" edge="1">
                    <mxGeometry relative="1" as="geometry">
                        <mxPoint x="760" y="500" as="targetPoint"/>
                    </mxGeometry>
                </mxCell>
                <mxCell id="w-fTzNewHKT8VR_-T8Jl-37" value="&lt;font style=&quot;font-size: 16px&quot;&gt;shortStringsArray&lt;span style=&quot;font-size: 16px&quot;&gt;[count] = array[index]&lt;/span&gt;&lt;br style=&quot;font-size: 16px&quot;&gt;&lt;span style=&quot;font-size: 16px&quot;&gt;count++&lt;/span&gt;&lt;br style=&quot;font-size: 16px&quot;&gt;&lt;/font&gt;" style="rounded=1;whiteSpace=wrap;html=1;fontSize=16;labelBorderColor=none;" parent="1" vertex="1">
                    <mxGeometry x="820" y="590" width="280" height="60" as="geometry"/>
                </mxCell>
                <mxCell id="w-fTzNewHKT8VR_-T8Jl-43" value="" style="edgeStyle=orthogonalEdgeStyle;rounded=0;orthogonalLoop=1;jettySize=auto;html=1;fontSize=16;" parent="1" source="w-fTzNewHKT8VR_-T8Jl-41" target="w-fTzNewHKT8VR_-T8Jl-42" edge="1">
                    <mxGeometry relative="1" as="geometry"/>
                </mxCell>
                <mxCell id="w-fTzNewHKT8VR_-T8Jl-41" value="&lt;font style=&quot;font-size: 16px&quot;&gt;shortStringsArray&lt;span style=&quot;font-size: 16px&quot;&gt;[] =&amp;nbsp;&lt;/span&gt;[count]&lt;br style=&quot;font-size: 16px&quot;&gt;&lt;span style=&quot;font-size: 16px&quot;&gt;count= 0&lt;/span&gt;&lt;br style=&quot;font-size: 16px&quot;&gt;&lt;/font&gt;" style="rounded=1;whiteSpace=wrap;html=1;fontSize=16;" parent="1" vertex="1">
                    <mxGeometry x="840" y="230" width="240" height="60" as="geometry"/>
                </mxCell>
                <mxCell id="w-fTzNewHKT8VR_-T8Jl-48" value="" style="edgeStyle=orthogonalEdgeStyle;rounded=0;orthogonalLoop=1;jettySize=auto;html=1;fontSize=16;" parent="1" source="w-fTzNewHKT8VR_-T8Jl-42" target="w-fTzNewHKT8VR_-T8Jl-47" edge="1">
                    <mxGeometry relative="1" as="geometry"/>
                </mxCell>
                <mxCell id="w-fTzNewHKT8VR_-T8Jl-57" style="edgeStyle=orthogonalEdgeStyle;rounded=0;orthogonalLoop=1;jettySize=auto;html=1;entryX=0;entryY=0.5;entryDx=0;entryDy=0;fontSize=16;" parent="1" source="w-fTzNewHKT8VR_-T8Jl-42" target="w-fTzNewHKT8VR_-T8Jl-55" edge="1">
                    <mxGeometry relative="1" as="geometry"/>
                </mxCell>
                <mxCell id="w-fTzNewHKT8VR_-T8Jl-42" value="index = from 0 to size" style="shape=hexagon;perimeter=hexagonPerimeter2;whiteSpace=wrap;html=1;fixedSize=1;fontSize=16;" parent="1" vertex="1">
                    <mxGeometry x="840" y="340" width="240" height="80" as="geometry"/>
                </mxCell>
                <mxCell id="w-fTzNewHKT8VR_-T8Jl-49" value="YES" style="edgeStyle=orthogonalEdgeStyle;rounded=0;orthogonalLoop=1;jettySize=auto;html=1;fontSize=16;" parent="1" source="w-fTzNewHKT8VR_-T8Jl-47" target="w-fTzNewHKT8VR_-T8Jl-37" edge="1">
                    <mxGeometry relative="1" as="geometry"/>
                </mxCell>
                <mxCell id="w-fTzNewHKT8VR_-T8Jl-50" value="NO" style="edgeStyle=orthogonalEdgeStyle;rounded=0;orthogonalLoop=1;jettySize=auto;html=1;fontSize=16;entryX=0;entryY=0.5;entryDx=0;entryDy=0;exitX=0;exitY=0.5;exitDx=0;exitDy=0;" parent="1" source="w-fTzNewHKT8VR_-T8Jl-47" target="w-fTzNewHKT8VR_-T8Jl-42" edge="1">
                    <mxGeometry x="-0.7143" relative="1" as="geometry">
                        <mxPoint x="750" y="500" as="targetPoint"/>
                        <Array as="points">
                            <mxPoint x="760" y="500"/>
                            <mxPoint x="760" y="380"/>
                        </Array>
                        <mxPoint as="offset"/>
                    </mxGeometry>
                </mxCell>
                <mxCell id="w-fTzNewHKT8VR_-T8Jl-47" value="length(array[index]) &amp;lt;= 3" style="rhombus;whiteSpace=wrap;html=1;fontSize=16;" parent="1" vertex="1">
                    <mxGeometry x="830" y="460" width="260" height="80" as="geometry"/>
                </mxCell>
                <mxCell id="w-fTzNewHKT8VR_-T8Jl-52" value="&lt;font style=&quot;font-size: 16px&quot;&gt;&lt;span style=&quot;font-size: 16px&quot;&gt;array[] = [string2, string2, ...]&lt;/span&gt;&lt;br style=&quot;font-size: 16px&quot;&gt;&lt;/font&gt;" style="rounded=1;whiteSpace=wrap;html=1;fontSize=16;arcSize=20;" parent="1" vertex="1">
                    <mxGeometry x="40" y="120" width="240" height="60" as="geometry"/>
                </mxCell>
                <mxCell id="w-fTzNewHKT8VR_-T8Jl-56" value="" style="edgeStyle=orthogonalEdgeStyle;rounded=0;orthogonalLoop=1;jettySize=auto;html=1;fontSize=16;" parent="1" source="w-fTzNewHKT8VR_-T8Jl-55" target="w-fTzNewHKT8VR_-T8Jl-34" edge="1">
                    <mxGeometry relative="1" as="geometry"/>
                </mxCell>
                <mxCell id="w-fTzNewHKT8VR_-T8Jl-55" value="&lt;font style=&quot;font-size: 16px;&quot;&gt;&lt;b style=&quot;font-size: 16px;&quot;&gt;Return&amp;nbsp;&lt;/b&gt;shortStringsArray&lt;br style=&quot;font-size: 16px;&quot;&gt;&lt;/font&gt;" style="rounded=1;whiteSpace=wrap;html=1;fontSize=16;" parent="1" vertex="1">
                    <mxGeometry x="1200" y="350" width="240" height="60" as="geometry"/>
                </mxCell>
            </root>
        </mxGraphModel>
    </diagram>
</mxfile>